<mxfile host="app.diagrams.net" modified="2023-09-20T19:22:55.195Z" agent="Mozilla/5.0 (Macintosh; Intel Mac OS X 10_15_7) AppleWebKit/537.36 (KHTML, like Gecko) Chrome/116.0.0.0 Safari/537.36" etag="ygXKDP6AL_4DWVk_OU62" version="21.8.0" type="device">
  <diagram name="Page-1" id="C30IYXTQzpdTgBaTdObk">
    <mxGraphModel dx="1804" dy="1742" grid="1" gridSize="10" guides="1" tooltips="1" connect="1" arrows="1" fold="1" page="1" pageScale="1" pageWidth="850" pageHeight="1100" math="0" shadow="0">
      <root>
        <mxCell id="0" />
        <mxCell id="1" parent="0" />
        <mxCell id="rJKq59JqaGutXKDvqBBi-1" value="&lt;p style=&quot;text-align: center; font-size: 11px;&quot;&gt;&lt;font style=&quot;font-size: 11px;&quot;&gt;&lt;br&gt;&lt;/font&gt;&lt;/p&gt;&lt;p style=&quot;text-align: center; font-size: 11px;&quot;&gt;&lt;font style=&quot;font-size: 28px;&quot;&gt;Employees&lt;/font&gt;&lt;/p&gt;&lt;p style=&quot;text-align: left; font-size: 11px;&quot;&gt;&lt;font style=&quot;font-size: 11px;&quot;&gt;PK employee_id&lt;/font&gt;&lt;/p&gt;&lt;p style=&quot;text-align: justify; font-size: 11px;&quot;&gt;&lt;font style=&quot;font-size: 11px;&quot;&gt;&lt;span data-colorformula=&quot;THEMEVAL()&quot; style=&quot;font-family: Calibri;&quot;&gt;name&lt;/span&gt;&lt;/font&gt;&lt;/p&gt;&lt;p style=&quot;text-align: justify; font-size: 11px;&quot;&gt;&lt;font style=&quot;font-size: 11px;&quot;&gt;&lt;span data-colorformula=&quot;THEMEVAL()&quot; style=&quot;font-family: Calibri;&quot;&gt;address&lt;/span&gt;&lt;/font&gt;&lt;/p&gt;&lt;p style=&quot;text-align: justify; font-size: 11px;&quot;&gt;&lt;font style=&quot;font-size: 11px;&quot;&gt;&lt;span data-colorformula=&quot;THEMEVAL()&quot; style=&quot;font-family: Calibri;&quot;&gt;email&lt;/span&gt;&lt;/font&gt;&lt;/p&gt;&lt;p style=&quot;text-align: justify; font-size: 11px;&quot;&gt;&lt;font style=&quot;font-size: 11px;&quot;&gt;&lt;span data-colorformula=&quot;THEMEVAL()&quot; style=&quot;font-family: Calibri;&quot;&gt;mobile number&lt;/span&gt;&lt;/font&gt;&lt;/p&gt;&lt;p style=&quot;text-align: justify; font-size: 11px;&quot;&gt;&lt;font style=&quot;font-size: 11px;&quot;&gt;&lt;span data-colorformula=&quot;THEMEVAL()&quot; style=&quot;font-family: Calibri;&quot;&gt;training courses&lt;/span&gt;&lt;/font&gt;&lt;/p&gt;&lt;p style=&quot;text-align: justify; font-size: 11px;&quot;&gt;&lt;font style=&quot;font-size: 11px;&quot;&gt;&lt;span data-colorformula=&quot;THEMEVAL()&quot; style=&quot;font-family: Calibri;&quot;&gt;skill set&lt;/span&gt;&lt;/font&gt;&lt;/p&gt;&lt;p style=&quot;text-align: justify; font-size: 11px;&quot;&gt;&lt;font style=&quot;font-size: 11px;&quot;&gt;&lt;span data-colorformula=&quot;THEMEVAL()&quot; style=&quot;font-family: Calibri;&quot;&gt;National Insurance number&lt;/span&gt;&lt;/font&gt;&lt;/p&gt;&lt;p style=&quot;text-align: justify; font-size: 11px;&quot;&gt;&lt;font style=&quot;font-size: 11px;&quot;&gt;&lt;span data-colorformula=&quot;THEMEVAL()&quot; style=&quot;font-family: Calibri;&quot;&gt;passport number &lt;/span&gt;&lt;/font&gt;&lt;/p&gt;&lt;p style=&quot;text-align: justify; font-size: 11px;&quot;&gt;&lt;font style=&quot;font-size: 11px;&quot;&gt;&lt;span data-colorformula=&quot;THEMEVAL()&quot; style=&quot;font-family: Calibri;&quot;&gt;driving licence number (for drivers)&lt;/span&gt;&lt;/font&gt;&lt;/p&gt;&lt;p style=&quot;text-align: justify; font-size: 11px;&quot;&gt;&lt;font style=&quot;font-size: 11px;&quot;&gt;&lt;span data-colorformula=&quot;THEMEVAL()&quot; style=&quot;font-family: Calibri;&quot;&gt;Role - driver, cook, order staff or shift-leader&lt;/span&gt;&lt;/font&gt;&lt;/p&gt;&lt;p style=&quot;text-align: justify; font-size: 11px;&quot;&gt;&lt;font style=&quot;font-size: 11px;&quot;&gt;&lt;span data-colorformula=&quot;THEMEVAL()&quot; style=&quot;font-family: Calibri;&quot;&gt;basic pay rate&lt;/span&gt;&lt;/font&gt;&lt;br&gt;&lt;/p&gt;" style="whiteSpace=wrap;html=1;aspect=fixed;" parent="1" vertex="1">
          <mxGeometry x="-190" y="-250" width="370" height="370" as="geometry" />
        </mxCell>
        <mxCell id="rJKq59JqaGutXKDvqBBi-2" value="&lt;p style=&quot;text-align: center; font-size: 11px;&quot;&gt;&lt;font style=&quot;font-size: 11px;&quot;&gt;&lt;br&gt;&lt;/font&gt;&lt;/p&gt;&lt;p style=&quot;text-align: center; font-size: 11px;&quot;&gt;&lt;font style=&quot;font-size: 28px;&quot;&gt;Customers&lt;/font&gt;&lt;/p&gt;&lt;p style=&quot;text-align: justify; font-size: 11px;&quot;&gt;&lt;font style=&quot;font-size: 11px;&quot;&gt;&lt;span data-colorformula=&quot;THEMEVAL()&quot; style=&quot;font-family: Calibri;&quot;&gt;PK customer_id&lt;/span&gt;&lt;/font&gt;&lt;/p&gt;&lt;p style=&quot;text-align: justify; font-size: 11px;&quot;&gt;&lt;font style=&quot;font-size: 11px;&quot;&gt;&lt;span data-colorformula=&quot;THEMEVAL()&quot; style=&quot;font-family: Calibri;&quot;&gt;home address&lt;/span&gt;&lt;/font&gt;&lt;/p&gt;&lt;p style=&quot;text-align: justify; font-size: 11px;&quot;&gt;&lt;font style=&quot;font-size: 11px;&quot;&gt;&lt;span data-colorformula=&quot;THEMEVAL()&quot; style=&quot;font-family: Calibri;&quot;&gt;name&lt;/span&gt;&lt;/font&gt;&lt;/p&gt;&lt;p style=&quot;text-align: justify; font-size: 11px;&quot;&gt;&lt;font style=&quot;font-size: 11px;&quot;&gt;&lt;span data-colorformula=&quot;THEMEVAL()&quot; style=&quot;font-family: Calibri;&quot;&gt;address&lt;/span&gt;&lt;/font&gt;&lt;/p&gt;&lt;p style=&quot;text-align: justify; font-size: 11px;&quot;&gt;&lt;font style=&quot;font-size: 11px;&quot;&gt;&lt;span data-colorformula=&quot;THEMEVAL()&quot; style=&quot;font-family: Calibri;&quot;&gt;email&lt;/span&gt;&lt;/font&gt;&lt;/p&gt;&lt;p style=&quot;text-align: justify; font-size: 11px;&quot;&gt;&lt;font style=&quot;font-size: 11px;&quot;&gt;&lt;span data-colorformula=&quot;THEMEVAL()&quot; style=&quot;font-family: Calibri;&quot;&gt;mobile number&lt;/span&gt;&lt;/font&gt;&lt;/p&gt;&lt;p style=&quot;text-align: justify; font-size: 11px;&quot;&gt;&lt;font style=&quot;font-size: 11px;&quot;&gt;&lt;br&gt;&lt;/font&gt;&lt;/p&gt;&lt;p style=&quot;text-align: center; font-size: 11px;&quot;&gt;&lt;font style=&quot;font-size: 11px;&quot;&gt;&lt;br&gt;&lt;font style=&quot;font-size: 11px;&quot;&gt;&lt;br&gt;&lt;/font&gt;&lt;/font&gt;&lt;/p&gt;" style="whiteSpace=wrap;html=1;aspect=fixed;" parent="1" vertex="1">
          <mxGeometry x="440" y="320" width="220" height="220" as="geometry" />
        </mxCell>
        <mxCell id="rJKq59JqaGutXKDvqBBi-3" value="&lt;p style=&quot;text-align: center; font-size: 11px;&quot;&gt;&lt;font style=&quot;font-size: 28px;&quot;&gt;Outlets&lt;/font&gt;&lt;/p&gt;&lt;p style=&quot;text-align: center; font-size: 11px;&quot;&gt;&lt;font style=&quot;font-size: 11px;&quot;&gt;&lt;span data-colorformula=&quot;THEMEVAL()&quot; style=&quot;font-family: Calibri;&quot;&gt;PK outlet_id&lt;/span&gt;&lt;/font&gt;&lt;/p&gt;&lt;p style=&quot;text-align: center; font-size: 11px;&quot;&gt;&lt;font style=&quot;font-size: 11px;&quot;&gt;&lt;span data-colorformula=&quot;THEMEVAL()&quot; style=&quot;font-family: Calibri;&quot;&gt;Outlet address&lt;/span&gt;&lt;/font&gt;&lt;/p&gt;&lt;p style=&quot;text-align: center; font-size: 11px;&quot;&gt;&lt;font style=&quot;font-size: 11px;&quot;&gt;&lt;br&gt;&lt;font style=&quot;font-size: 11px;&quot;&gt;&lt;br&gt;&lt;/font&gt;&lt;/font&gt;&lt;/p&gt;" style="whiteSpace=wrap;html=1;aspect=fixed;" parent="1" vertex="1">
          <mxGeometry x="-140" y="380" width="200" height="200" as="geometry" />
        </mxCell>
        <mxCell id="rJKq59JqaGutXKDvqBBi-4" value="&lt;p style=&quot;text-align: center;&quot;&gt;&lt;br&gt;&lt;/p&gt;&lt;p style=&quot;text-align: center;&quot;&gt;&lt;br&gt;&lt;/p&gt;&lt;p style=&quot;text-align: center;&quot;&gt;&lt;br&gt;&lt;/p&gt;&lt;p style=&quot;text-align: center;&quot;&gt;&lt;br&gt;&lt;/p&gt;&lt;p style=&quot;text-align: center;&quot;&gt;&lt;br&gt;&lt;/p&gt;&lt;p style=&quot;text-align: center;&quot;&gt;&lt;font style=&quot;font-size: 28px;&quot;&gt;Orders&lt;/font&gt; &lt;/p&gt;&lt;p style=&quot;text-align: justify; font-size: 11px;&quot;&gt;&lt;font style=&quot;font-size: 11px;&quot;&gt;&lt;span data-colorformula=&quot;THEMEVAL()&quot; style=&quot;font-family: Calibri;&quot;&gt;PK order_id&lt;/span&gt;&lt;/font&gt;&lt;/p&gt;&lt;p style=&quot;text-align: justify; font-size: 11px;&quot;&gt;&lt;font style=&quot;font-size: 11px;&quot;&gt;&lt;span data-colorformula=&quot;THEMEVAL()&quot; style=&quot;font-family: Calibri;&quot;&gt;order method - by telephone or via app &lt;/span&gt;&lt;/font&gt;&lt;/p&gt;&lt;p style=&quot;text-align: justify; font-size: 11px;&quot;&gt;&lt;font style=&quot;font-size: 11px;&quot;&gt;&lt;span data-colorformula=&quot;THEMEVAL()&quot; style=&quot;font-family: Calibri;&quot;&gt;payment method - payment by either cash or card&lt;/span&gt;&lt;/font&gt;&lt;/p&gt;&lt;p style=&quot;text-align: justify; font-size: 11px;&quot;&gt;&lt;font style=&quot;font-size: 11px;&quot;&gt;&lt;span data-colorformula=&quot;THEMEVAL()&quot; style=&quot;font-family: Calibri;&quot;&gt;menu - the regular menu or the savers menu&lt;/span&gt;&lt;/font&gt;&lt;/p&gt;&lt;p style=&quot;text-align: justify; font-size: 11px;&quot;&gt;&lt;font style=&quot;font-size: 11px;&quot;&gt;&lt;span data-colorformula=&quot;THEMEVAL()&quot; style=&quot;font-family: Calibri;&quot;&gt;product_id&lt;/span&gt;&lt;/font&gt;&lt;/p&gt;&lt;p style=&quot;text-align: justify;&quot;&gt;&lt;br&gt;&lt;/p&gt;&lt;p style=&quot;text-align: justify;&quot;&gt;&lt;br&gt;&lt;/p&gt;&lt;p style=&quot;text-align: center;&quot;&gt;&lt;br&gt;&lt;/p&gt;&lt;p style=&quot;text-align: center;&quot;&gt;&lt;br&gt;&lt;br&gt;&lt;/p&gt;" style="whiteSpace=wrap;html=1;aspect=fixed;" parent="1" vertex="1">
          <mxGeometry x="360" y="-120" width="230" height="230" as="geometry" />
        </mxCell>
        <mxCell id="rJKq59JqaGutXKDvqBBi-7" value="" style="edgeStyle=entityRelationEdgeStyle;fontSize=12;html=1;endArrow=ERzeroToMany;endFill=1;rounded=0;exitX=0.5;exitY=0;exitDx=0;exitDy=0;entryX=-0.001;entryY=0.848;entryDx=0;entryDy=0;entryPerimeter=0;" parent="1" source="rJKq59JqaGutXKDvqBBi-3" target="rJKq59JqaGutXKDvqBBi-4" edge="1">
          <mxGeometry width="100" height="100" relative="1" as="geometry">
            <mxPoint x="641" y="240" as="sourcePoint" />
            <mxPoint x="470" y="65" as="targetPoint" />
            <Array as="points">
              <mxPoint x="510" y="5" />
              <mxPoint x="490" y="15" />
            </Array>
          </mxGeometry>
        </mxCell>
        <mxCell id="rJKq59JqaGutXKDvqBBi-8" value="" style="edgeStyle=entityRelationEdgeStyle;fontSize=12;html=1;endArrow=ERzeroToMany;startArrow=ERmandOne;rounded=0;entryX=-0.004;entryY=0.343;entryDx=0;entryDy=0;entryPerimeter=0;exitX=0.5;exitY=0;exitDx=0;exitDy=0;" parent="1" source="rJKq59JqaGutXKDvqBBi-2" target="rJKq59JqaGutXKDvqBBi-4" edge="1">
          <mxGeometry width="100" height="100" relative="1" as="geometry">
            <mxPoint x="270" y="310" as="sourcePoint" />
            <mxPoint x="370" y="210" as="targetPoint" />
          </mxGeometry>
        </mxCell>
        <mxCell id="rJKq59JqaGutXKDvqBBi-9" value="" style="edgeStyle=entityRelationEdgeStyle;fontSize=12;html=1;endArrow=ERzeroToMany;startArrow=ERmandOne;rounded=0;entryX=-0.013;entryY=0.148;entryDx=0;entryDy=0;entryPerimeter=0;exitX=1;exitY=0.5;exitDx=0;exitDy=0;" parent="1" source="rJKq59JqaGutXKDvqBBi-1" target="rJKq59JqaGutXKDvqBBi-4" edge="1">
          <mxGeometry width="100" height="100" relative="1" as="geometry">
            <mxPoint x="300" y="55" as="sourcePoint" />
            <mxPoint x="400" y="-45" as="targetPoint" />
            <Array as="points">
              <mxPoint x="280" y="30" />
            </Array>
          </mxGeometry>
        </mxCell>
        <mxCell id="rJKq59JqaGutXKDvqBBi-10" value="&lt;div style=&quot;font-size: 13px;&quot;&gt;&lt;font style=&quot;font-size: 28px;&quot;&gt;Items&lt;/font&gt;&lt;/div&gt;&lt;div&gt;PK item_id&lt;br&gt;&lt;/div&gt;&lt;div&gt;product_id&lt;br&gt;&lt;/div&gt;&lt;div&gt;menu items&lt;/div&gt;" style="whiteSpace=wrap;html=1;aspect=fixed;" parent="1" vertex="1">
          <mxGeometry x="770" y="-50" width="170" height="170" as="geometry" />
        </mxCell>
        <mxCell id="rJKq59JqaGutXKDvqBBi-11" value="" style="edgeStyle=entityRelationEdgeStyle;fontSize=12;html=1;endArrow=ERzeroToMany;startArrow=ERmandOne;rounded=0;exitX=0.995;exitY=0.55;exitDx=0;exitDy=0;exitPerimeter=0;entryX=-0.004;entryY=0.473;entryDx=0;entryDy=0;entryPerimeter=0;" parent="1" source="rJKq59JqaGutXKDvqBBi-3" target="rJKq59JqaGutXKDvqBBi-1" edge="1">
          <mxGeometry width="100" height="100" relative="1" as="geometry">
            <mxPoint x="630" y="360" as="sourcePoint" />
            <mxPoint x="-70" as="targetPoint" />
            <Array as="points">
              <mxPoint x="150" y="120" />
              <mxPoint x="90" y="210" />
              <mxPoint x="-175" y="90" />
            </Array>
          </mxGeometry>
        </mxCell>
        <mxCell id="rJKq59JqaGutXKDvqBBi-12" value="&lt;div style=&quot;font-size: 13px;&quot;&gt;&lt;font style=&quot;font-size: 28px;&quot;&gt;Shifts&lt;/font&gt;&lt;/div&gt;&lt;div&gt;shift_id&lt;/div&gt;&lt;div&gt;shift date&lt;/div&gt;&lt;div&gt;shift type - breakfast/dinner&lt;br&gt;&lt;/div&gt;" style="whiteSpace=wrap;html=1;aspect=fixed;" parent="1" vertex="1">
          <mxGeometry x="-270" y="190" width="150" height="150" as="geometry" />
        </mxCell>
        <mxCell id="rJKq59JqaGutXKDvqBBi-13" value="" style="edgeStyle=entityRelationEdgeStyle;fontSize=12;html=1;endArrow=ERzeroToMany;startArrow=ERmandOne;rounded=0;exitX=1.008;exitY=0.714;exitDx=0;exitDy=0;exitPerimeter=0;entryX=1;entryY=0.5;entryDx=0;entryDy=0;" parent="1" source="rJKq59JqaGutXKDvqBBi-1" target="rJKq59JqaGutXKDvqBBi-12" edge="1">
          <mxGeometry width="100" height="100" relative="1" as="geometry">
            <mxPoint x="-110" y="160" as="sourcePoint" />
            <mxPoint x="-500" y="90" as="targetPoint" />
            <Array as="points">
              <mxPoint x="310" y="90" />
            </Array>
          </mxGeometry>
        </mxCell>
        <mxCell id="rJKq59JqaGutXKDvqBBi-14" value="" style="edgeStyle=entityRelationEdgeStyle;fontSize=12;html=1;endArrow=ERzeroToMany;startArrow=ERmandOne;rounded=0;entryX=0;entryY=0.412;entryDx=0;entryDy=0;entryPerimeter=0;exitX=1.006;exitY=0.557;exitDx=0;exitDy=0;exitPerimeter=0;" parent="1" source="rJKq59JqaGutXKDvqBBi-4" target="rJKq59JqaGutXKDvqBBi-10" edge="1">
          <mxGeometry width="100" height="100" relative="1" as="geometry">
            <mxPoint x="700" y="90" as="sourcePoint" />
            <mxPoint x="800" y="-10" as="targetPoint" />
          </mxGeometry>
        </mxCell>
      </root>
    </mxGraphModel>
  </diagram>
</mxfile>
